<?xml version="1.0" encoding="UTF-8" standalone="no"?>
<svg
   xmlns:dc="http://purl.org/dc/elements/1.1/"
   xmlns:cc="http://creativecommons.org/ns#"
   xmlns:rdf="http://www.w3.org/1999/02/22-rdf-syntax-ns#"
   xmlns:svg="http://www.w3.org/2000/svg"
   xmlns="http://www.w3.org/2000/svg"
   xmlns:sodipodi="http://sodipodi.sourceforge.net/DTD/sodipodi-0.dtd"
   xmlns:inkscape="http://www.inkscape.org/namespaces/inkscape"
   version="1.1"
   x="0px"
   y="0px"
   viewBox="0 0 512 640"
   enable-background="new 0 0 512 512"
   xml:space="preserve"
   id="svg3458"
   inkscape:version="0.91 r13725"
   sodipodi:docname="inkscape_file_for_all_icons.svg"
   inkscape:export-filename="/home/michaelbaxter/projects/bol_landing_page/img/noun_527468_cc.svg.png"
   inkscape:export-xdpi="20.513594"
   inkscape:export-ydpi="20.513594"><metadata
     id="metadata3476"><rdf:RDF><cc:Work
         rdf:about=""><dc:format>image/svg+xml</dc:format><dc:type
           rdf:resource="http://purl.org/dc/dcmitype/StillImage" /><dc:title /></cc:Work></rdf:RDF></metadata><defs
     id="defs3474" /><sodipodi:namedview
     pagecolor="#ffffff"
     bordercolor="#666666"
     borderopacity="1"
     objecttolerance="10"
     gridtolerance="10"
     guidetolerance="10"
     inkscape:pageopacity="0"
     inkscape:pageshadow="2"
     inkscape:window-width="1920"
     inkscape:window-height="1027"
     id="namedview3472"
     showgrid="false"
     inkscape:zoom="0.46569611"
     inkscape:cx="231.74575"
     inkscape:cy="-128.08355"
     inkscape:window-x="0"
     inkscape:window-y="0"
     inkscape:window-maximized="1"
     inkscape:current-layer="svg3458" /><g
     inkscape:groupmode="layer"
     id="layer2"
     inkscape:label="Layer 2" /><g
     id="g5264"
     inkscape:export-filename="/home/michaelbaxter/projects/bol_landing_page/img/manage_reviews.png"
     inkscape:export-xdpi="18.598814"
     inkscape:export-ydpi="18.598814"><path
       sodipodi:nodetypes="cccc"
       inkscape:connector-curvature="0"
       id="path4753"
       d="M -167.85742,-51.203636 -713.03359,482.52288 -869.83099,135.35097 Z"
       style="fill:#00ffae;fill-opacity:1;fill-rule:evenodd;stroke:#000000;stroke-width:0;stroke-linecap:butt;stroke-linejoin:miter;stroke-miterlimit:4;stroke-dasharray:none;stroke-opacity:1" /><g
       transform="translate(-763.22842,19.478513)"
       id="g3460"><path
         inkscape:connector-curvature="0"
         id="path3462"
         d="m 433.5,152.5 c -9.2,-9.2 -14.3,-21.5 -14.3,-34.6 l 0,-17.1 c 0,-36 -29.3,-65.3 -65.3,-65.3 l -17.1,0 C 323.7,35.5 311.4,30.4 302.2,21.2 289.8,8.8 273.4,2 256,2 c -17.4,0 -33.8,6.8 -46.1,19.1 -9.2,9.2 -21.5,14.3 -34.6,14.3 l -17.1,0 c -36,0 -65.3,29.3 -65.3,65.3 l 0,17.1 c 0,13.1 -5.1,25.4 -14.3,34.6 -12.3,12.3 -19.1,28.7 -19.1,46.1 0,17.4 6.8,33.8 19.1,46.1 9.2,9.2 14.3,21.5 14.3,34.6 l 0,17.1 c 0,36 29.3,65.3 65.3,65.3 l 17.1,0 c 5.4,0 10.6,0.9 15.5,2.5 l 0,145.9 65.3,-55.9 65.3,55.9 0,-145.7 c 4.9,-1.6 10.1,-2.5 15.5,-2.5 l 17.1,0 c 36,0 65.3,-29.3 65.3,-65.3 l 0,-17.1 c 0,-13.1 5.1,-25.4 14.3,-34.6 l 0,0 c 25.3,-25.5 25.3,-66.9 -0.1,-92.3 z m -128.5,322 -48.9,-42 -48.9,42 0,-101 c 1,0.8 1.9,1.6 2.8,2.5 12.7,12.7 29.4,19.1 46.1,19.1 16.7,0 33.4,-6.4 46.1,-19.1 0.9,-0.9 1.8,-1.7 2.8,-2.5 l 0,101 z M 422,233.2 c -12.3,12.3 -19.1,28.7 -19.1,46.1 l 0,17.1 c 0,27 -22,48.9 -48.9,48.9 l -17.1,0 c -17.4,0 -33.8,6.8 -46.1,19.1 -19.1,19.1 -50.1,19.1 -69.2,0 -12.3,-12.3 -28.7,-19.1 -46.1,-19.1 l -17.1,0 c -27,0 -48.9,-22 -48.9,-48.9 l 0,-17.1 c 0,-17.4 -6.8,-33.8 -19.1,-46.1 -9.2,-9.2 -14.3,-21.5 -14.3,-34.6 0,-13.1 5.1,-25.4 14.3,-34.6 12.3,-12.3 19.1,-28.7 19.1,-46.1 l 0,-17.1 c 0,-27 22,-48.9 48.9,-48.9 l 17.1,0 c 17.4,0 33.8,-6.8 46.1,-19.1 9.2,-9.2 21.5,-14.3 34.6,-14.3 13.1,0 25.4,5.1 34.6,14.3 12.2,12.2 28.5,19 46,19 l 17.1,0 c 27,0 48.9,22 48.9,48.9 l 0,17.1 c 0,17.4 6.8,33.8 19.1,46.1 19.1,19.2 19.1,50.2 0.1,69.3 z" /><path
         inkscape:connector-curvature="0"
         id="path3464"
         d="m 256,59.9 c -76.5,0 -138.7,62.2 -138.7,138.7 0,76.5 62.2,138.7 138.7,138.7 76.5,0 138.7,-62.2 138.7,-138.7 C 394.7,122.1 332.5,59.9 256,59.9 Z m 0,261.1 c -67.5,0 -122.4,-54.9 -122.4,-122.4 0,-67.5 54.9,-122.4 122.4,-122.4 67.5,0 122.4,54.9 122.4,122.4 0,67.5 -54.9,122.4 -122.4,122.4 z" /><path
         inkscape:connector-curvature="0"
         id="path3466"
         d="m 256,90.6 -23.8,73.3 -77.1,0 62.3,45.3 -23.8,73.3 62.4,-45.3 62.4,45.3 -23.8,-73.3 62.3,-45.3 -77.1,0 L 256,90.6 Z m 19.4,112.4 12,36.8 -31.4,-22.7 -31.3,22.7 12,-36.8 -31.3,-22.8 38.7,0 12,-36.8 12,36.8 38.7,0 -31.4,22.8 z" /></g></g><g
     inkscape:groupmode="layer"
     id="layer1"
     inkscape:label="Layer 1" /><g
     id="g5238"
     inkscape:export-filename="/home/michaelbaxter/projects/bol_landing_page/img/market_research.png"
     inkscape:export-xdpi="21.264029"
     inkscape:export-ydpi="21.264029"><path
       sodipodi:nodetypes="cccc"
       inkscape:connector-curvature="0"
       id="path4753-3"
       d="M 13.273543,273.04544 739.17052,38.195209 724.82589,418.86303 Z"
       style="fill:#00ffae;fill-opacity:1;fill-rule:evenodd;stroke:#000000;stroke-width:0;stroke-linecap:butt;stroke-linejoin:miter;stroke-miterlimit:4;stroke-dasharray:none;stroke-opacity:1" /><g
       transform="translate(197.33683,-13.215222)"
       id="g5045"><g
         id="g4991"><path
           inkscape:connector-curvature="0"
           d="m 50.3,159.3 15.8,4.3 c 1.3,-4.7 2.7,-9.4 4.4,-14 L 55,144.1 c -1.8,5 -3.4,10.1 -4.7,15.2 z"
           id="path4993" /><path
           inkscape:connector-curvature="0"
           d="m 44.3,190.6 16.3,1.9 c 0.5,-4.8 1.3,-9.7 2.2,-14.5 l -16.1,-3.1 c -1,5.2 -1.8,10.4 -2.4,15.7 z"
           id="path4995" /><path
           inkscape:connector-curvature="0"
           d="M 279.7,3.2 C 274.4,2.6 269.1,2.2 263.8,2 l -0.6,16.4 c 4.9,0.2 9.8,0.5 14.6,1.1 l 1.9,-16.3 z"
           id="path4997" /><path
           inkscape:connector-curvature="0"
           d="M 310.9,9 C 305.8,7.6 300.6,6.5 295.4,5.5 l -3,16.1 c 4.8,0.9 9.6,2 14.3,3.2 L 310.9,9 Z"
           id="path4999" /><path
           inkscape:connector-curvature="0"
           d="M 248.6,18.4 248,2 c -5.3,0.2 -10.6,0.6 -15.8,1.2 l 1.8,16.3 c 4.8,-0.6 9.7,-0.9 14.6,-1.1 z"
           id="path5001" /><path
           inkscape:connector-curvature="0"
           d="m 219.4,21.7 -3,-16.1 c -5.2,1 -10.4,2.2 -15.5,3.5 l 4.2,15.8 c 4.7,-1.3 9.5,-2.4 14.3,-3.2 z"
           id="path5003" /><path
           inkscape:connector-curvature="0"
           d="m 369.1,34.3 c -4.5,-2.8 -9.1,-5.5 -13.8,-7.9 l -7.6,14.5 c 4.3,2.3 8.6,4.7 12.7,7.3 l 8.7,-13.9 z"
           id="path5005" /><path
           inkscape:connector-curvature="0"
           d="m 394.7,53.1 c -4,-3.4 -8.2,-6.8 -12.4,-9.9 l -9.7,13.2 c 3.9,2.9 7.8,6 11.5,9.1 l 10.6,-12.4 z"
           id="path5007" /><path
           inkscape:connector-curvature="0"
           d="m 417.2,75.6 c -3.5,-4 -7.1,-7.9 -10.8,-11.6 l -11.6,11.6 c 3.4,3.4 6.8,7 10,10.7 l 12.4,-10.7 z"
           id="path5009" /><path
           inkscape:connector-curvature="0"
           d="m 164.2,41 -7.7,-14.5 c -4.7,2.5 -9.3,5.1 -13.8,8 l 8.7,13.9 c 4.2,-2.7 8.5,-5.2 12.8,-7.4 z"
           id="path5011" /><path
           inkscape:connector-curvature="0"
           d="m 341,19.5 c -4.8,-2.1 -9.8,-4.1 -14.8,-5.8 l -5.4,15.5 c 4.6,1.6 9.2,3.4 13.7,5.4 L 341,19.5 Z"
           id="path5013" /><path
           inkscape:connector-curvature="0"
           d="m 191.1,29.2 -5.4,-15.5 c -5,1.7 -9.9,3.7 -14.8,5.8 l 6.6,15 c 4.4,-1.9 9,-3.7 13.6,-5.3 z"
           id="path5015" /><path
           inkscape:connector-curvature="0"
           d="m 60.8,129.3 15,6.6 c 2,-4.5 4.1,-8.9 6.4,-13.2 L 67.8,115 c -2.5,4.6 -4.8,9.5 -7,14.3 z"
           id="path5017" /><path
           inkscape:connector-curvature="0"
           d="m 84.8,88.1 c -3.1,4.2 -6.2,8.7 -9,13.1 l 13.9,8.8 c 2.6,-4.1 5.4,-8.2 8.3,-12.1 L 84.8,88.1 Z"
           id="path5019" /><path
           inkscape:connector-curvature="0"
           d="m 444.1,114.8 -14.5,7.7 c 2.3,4.3 4.4,8.7 6.4,13.2 l 15,-6.6 c -2,-4.9 -4.4,-9.7 -6.9,-14.3 z"
           id="path5021" /><path
           inkscape:connector-curvature="0"
           d="M 427.2,88 414,97.7 c 2.9,3.9 5.7,8 8.3,12.1 l 13.9,-8.8 c -2.9,-4.4 -5.9,-8.8 -9,-13 z"
           id="path5023" /><path
           inkscape:connector-curvature="0"
           d="m 139.4,56.6 -9.7,-13.2 c -4.3,3.1 -8.5,6.5 -12.4,9.9 L 128,65.7 c 3.6,-3.2 7.4,-6.2 11.4,-9.1 z"
           id="path5025" /><path
           inkscape:connector-curvature="0"
           d="M 117.1,75.7 105.5,64.1 c -3.7,3.7 -7.4,7.6 -10.8,11.6 l 12.4,10.7 c 3.2,-3.7 6.6,-7.3 10,-10.7 z"
           id="path5027" /><path
           inkscape:connector-curvature="0"
           d="m 457,143.9 -15.5,5.5 c 1.6,4.6 3.1,9.3 4.4,14 l 15.8,-4.3 c -1.4,-5.1 -3,-10.2 -4.7,-15.2 z"
           id="path5029" /><path
           inkscape:connector-curvature="0"
           d="m 465.3,174.5 -16.1,3.1 c 0.9,4.8 1.7,9.7 2.2,14.5 l 16.3,-1.9 c -0.6,-5.2 -1.4,-10.5 -2.4,-15.7 z"
           id="path5031" /><path
           inkscape:connector-curvature="0"
           d="M 365.3,92.8 C 330.1,61.3 284.7,46.8 237.3,52.1 161.6,60.5 100.9,121.6 93,197.4 c -5.1,48.6 11.4,96.4 45.1,131.3 28,28.9 43.6,66.5 44,105.8 -4.9,4.5 -8.1,10.9 -8.1,18.1 0,11.3 7.7,20.8 18.2,23.6 -1.1,2.8 -1.8,5.9 -1.8,9.1 0,13.6 11,24.6 24.6,24.6 l 82,0 c 13.6,0 24.6,-11 24.6,-24.6 0,-3.2 -0.7,-6.3 -1.8,-9.1 10.4,-2.8 18.2,-12.3 18.2,-23.6 0,-7.2 -3.2,-13.6 -8.1,-18.1 0.4,-39.6 15.8,-76.9 43.5,-105.3 30,-30.7 46.6,-71.3 46.6,-114.3 -0.1,-46.5 -20,-91 -54.7,-122.1 z m -142.1,220.5 -12.3,0 c -6.8,0 -12.3,-5.5 -12.3,-12.3 0,-6.8 5.5,-12.3 12.3,-12.3 6.8,0 12.3,5.5 12.3,12.3 l 0,12.3 z m 16.4,16.4 32.8,0 0,98.3 -32.8,0 0,-98.3 z m 57.4,163.9 -82,0 c -4.5,0 -8.2,-3.7 -8.2,-8.2 0,-4.5 3.7,-8.2 8.2,-8.2 l 82,0 c 4.5,0 8.2,3.7 8.2,8.2 0,4.5 -3.7,8.2 -8.2,8.2 z m 16.4,-32.8 -16.4,0 -82,0 -16.4,0 c -4.5,0 -8.2,-3.7 -8.2,-8.2 0,-4.5 3.7,-8.2 8.2,-8.2 l 114.7,0 c 4.5,0 8.2,3.7 8.2,8.2 0.1,4.5 -3.6,8.2 -8.1,8.2 z m 48.3,-143 c -29.2,29.9 -46.1,68.8 -48.1,110.3 l -0.2,0 -24.6,0 0,-98.3 12.3,0 c 15.8,0 28.7,-12.9 28.7,-28.7 0,-15.8 -12.9,-28.7 -28.7,-28.7 -15.8,0 -28.7,12.9 -28.7,28.7 l 0,12.3 -32.8,0 0,-12.4 c 0,-15.8 -12.9,-28.7 -28.7,-28.7 -15.8,0 -28.7,12.9 -28.7,28.7 0,15.8 12.9,28.7 28.7,28.7 l 12.3,0 0,98.3 -24.6,0 -0.2,0 c -2,-41.3 -19,-80.3 -48.5,-110.7 -30.4,-31.4 -45.2,-74.5 -40.6,-118.2 7.1,-68.2 61.7,-123.2 129.8,-130.7 42.6,-4.7 83.6,8.3 115.3,36.6 31.2,28 49.2,68 49.2,109.9 -0.1,38.7 -14.9,75.2 -41.9,102.9 z m -72.9,-4.5 0,-12.3 c 0,-6.8 5.5,-12.3 12.3,-12.3 6.8,0 12.3,5.5 12.3,12.3 0,6.8 -5.5,12.3 -12.3,12.3 l -12.3,0 z"
           id="path5033" /></g></g></g><g
     id="g5209"
     transform="translate(-291.57628,733.83104)"
     inkscape:export-filename="/home/michaelbaxter/projects/bol_landing_page/img/measure_profit.png"
     inkscape:export-xdpi="16.764608"
     inkscape:export-ydpi="16.764608"><g
       id="g5232"><path
         transform="translate(291.57628,-733.83104)"
         sodipodi:nodetypes="cccc"
         inkscape:connector-curvature="0"
         id="path4753-3-6"
         d="M -318.4495,599.61679 358.49366,951.51036 77.400092,1208.6099 Z"
         style="fill:#00ffae;fill-opacity:1;fill-rule:evenodd;stroke:#000000;stroke-width:0;stroke-linecap:butt;stroke-linejoin:miter;stroke-miterlimit:4;stroke-dasharray:none;stroke-opacity:1" /><g
         id="g5193"><path
           inkscape:connector-curvature="0"
           d="m 493.6,314.9 0,-265.2 C 503.1,46.3 510,37.3 510,26.6 510,13 499,2 485.4,2 L 26.6,2 C 13,2 2,13 2,26.6 2,37.3 8.9,46.3 18.4,49.7 l 0,265.2 C 8.9,318.3 2,327.3 2,337.9 c 0,13.6 11,24.6 24.6,24.6 l 204.8,0 0,81.9 -98.3,0 0,65.6 49.2,0 0,-16.4 49.2,0 0,16.4 49.2,0 0,-16.4 49.2,0 0,16.4 49.2,0 0,-65.5 -98.3,0 0,-81.9 204.8,0 c 13.6,0 24.6,-11 24.6,-24.6 -0.2,-10.7 -7.1,-19.7 -16.6,-23.1 z M 34.8,51.2 l 442.5,0 0,262.2 -442.5,0 0,-262.2 z m -8.2,-32.8 458.8,0 c 4.5,0 8.2,3.7 8.2,8.2 0,4.5 -3.7,8.2 -8.2,8.2 l -458.8,0 c -4.5,0 -8.2,-3.7 -8.2,-8.2 0,-4.5 3.7,-8.2 8.2,-8.2 z m 335.9,442.4 0,32.8 -16.4,0 0,-16.4 -81.9,0 0,16.4 -16.4,0 0,-16.4 -81.9,0 0,16.4 -16.4,0 0,-32.8 98.3,0 0,-98.3 16.4,0 0,98.3 98.3,0 z m 122.9,-114.7 -204.8,0 -49.2,0 -204.8,0 c -4.5,0 -8.2,-3.7 -8.2,-8.2 0,-4.5 3.7,-8.2 8.2,-8.2 l 458.8,0 c 4.5,0 8.2,3.7 8.2,8.2 0,4.5 -3.7,8.2 -8.2,8.2 z"
           id="path5195" /><path
           inkscape:connector-curvature="0"
           d="m 436.3,83.9 c -13.6,0 -24.6,11 -24.6,24.6 0,3.8 0.9,7.3 2.5,10.5 l -68,68 -49.2,-49.1 -98.3,98.3 -65.5,-65.5 -46.8,46.8 C 83.2,216 79.7,215 75.9,215 c -13.6,0 -24.6,11 -24.6,24.6 0,13.6 11,24.6 24.6,24.6 13.6,0 24.6,-11 24.6,-24.6 0,-3.8 -0.9,-7.3 -2.5,-10.5 l 35.2,-35.2 65.5,65.5 98.3,-98.3 49.2,49.2 79.6,-79.6 c 3.2,1.5 6.7,2.5 10.5,2.5 13.6,0 24.6,-11 24.6,-24.6 0,-13.6 -11.1,-24.7 -24.6,-24.7 z M 75.7,247.8 c -4.5,0 -8.2,-3.7 -8.2,-8.2 0,-4.5 3.7,-8.2 8.2,-8.2 4.5,0 8.2,3.7 8.2,8.2 0,4.5 -3.6,8.2 -8.2,8.2 z M 436.3,116.7 c -4.5,0 -8.2,-3.7 -8.2,-8.2 0,-4.5 3.7,-8.2 8.2,-8.2 4.5,0 8.2,3.7 8.2,8.2 0,4.5 -3.7,8.2 -8.2,8.2 z"
           id="path5197" /></g></g></g></svg>