<svg xmlns="http://www.w3.org/2000/svg" xmlns:xlink="http://www.w3.org/1999/xlink" version="1.1" x="0px" y="0px" viewBox="0 0 512 640" enable-background="new 0 0 512 512" xml:space="preserve"><g><path d="M433.5,152.5c-9.2-9.2-14.3-21.5-14.3-34.6v-17.1c0-36-29.3-65.3-65.3-65.3h-17.1c-13.1,0-25.4-5.1-34.6-14.3   C289.8,8.8,273.4,2,256,2s-33.8,6.8-46.1,19.1c-9.2,9.2-21.5,14.3-34.6,14.3h-17.1c-36,0-65.3,29.3-65.3,65.3v17.1   c0,13.1-5.1,25.4-14.3,34.6c-12.3,12.3-19.1,28.7-19.1,46.1c0,17.4,6.8,33.8,19.1,46.1c9.2,9.2,14.3,21.5,14.3,34.6v17.1   c0,36,29.3,65.3,65.3,65.3h17.1c5.4,0,10.6,0.9,15.5,2.5V510l65.3-55.9l65.3,55.9V364.3c4.9-1.6,10.1-2.5,15.5-2.5h17.1   c36,0,65.3-29.3,65.3-65.3v-17.1c0-13.1,5.1-25.4,14.3-34.6v0C458.9,219.3,458.9,177.9,433.5,152.5z M305,474.5l-48.9-42l-48.9,42   v-101c1,0.8,1.9,1.6,2.8,2.5c12.7,12.7,29.4,19.1,46.1,19.1s33.4-6.4,46.1-19.1c0.9-0.9,1.8-1.7,2.8-2.5V474.5z M422,233.2   c-12.3,12.3-19.1,28.7-19.1,46.1v17.1c0,27-22,48.9-48.9,48.9h-17.1c-17.4,0-33.8,6.8-46.1,19.1c-19.1,19.1-50.1,19.1-69.2,0   c-12.3-12.3-28.7-19.1-46.1-19.1h-17.1c-27,0-48.9-22-48.9-48.9v-17.1c0-17.4-6.8-33.8-19.1-46.1c-9.2-9.2-14.3-21.5-14.3-34.6   s5.1-25.4,14.3-34.6c12.3-12.3,19.1-28.7,19.1-46.1v-17.1c0-27,22-48.9,48.9-48.9h17.1c17.4,0,33.8-6.8,46.1-19.1   c9.2-9.2,21.5-14.3,34.6-14.3s25.4,5.1,34.6,14.3C303,45,319.3,51.8,336.8,51.8h17.1c27,0,48.9,22,48.9,48.9v17.1   c0,17.4,6.8,33.8,19.1,46.1C441,183.1,441,214.1,422,233.2z"/><path d="M256,59.9c-76.5,0-138.7,62.2-138.7,138.7S179.5,337.3,256,337.3s138.7-62.2,138.7-138.7S332.5,59.9,256,59.9z M256,321   c-67.5,0-122.4-54.9-122.4-122.4S188.5,76.2,256,76.2s122.4,54.9,122.4,122.4S323.5,321,256,321z"/><path d="M256,90.6l-23.8,73.3h-77.1l62.3,45.3l-23.8,73.3l62.4-45.3l62.4,45.3l-23.8-73.3l62.3-45.3h-77.1L256,90.6z M275.4,203   l12,36.8L256,217.1l-31.3,22.7l12-36.8l-31.3-22.8h38.7l12-36.8l12,36.8h38.7L275.4,203z"/></g><text x="0" y="527" fill="#000000" font-size="5px" font-weight="bold" font-family="'Helvetica Neue', Helvetica, Arial-Unicode, Arial, Sans-serif">Created by Icon Fair</text><text x="0" y="532" fill="#000000" font-size="5px" font-weight="bold" font-family="'Helvetica Neue', Helvetica, Arial-Unicode, Arial, Sans-serif">from the Noun Project</text></svg>