<svg xmlns="http://www.w3.org/2000/svg" xmlns:xlink="http://www.w3.org/1999/xlink" version="1.1" x="0px" y="0px" viewBox="0 0 512 640" enable-background="new 0 0 512 512" xml:space="preserve"><g><path d="M50.3,159.3l15.8,4.3c1.3-4.7,2.7-9.4,4.4-14L55,144.1C53.2,149.1,51.6,154.2,50.3,159.3z"/><path d="M44.3,190.6l16.3,1.9c0.5-4.8,1.3-9.7,2.2-14.5l-16.1-3.1C45.7,180.1,44.9,185.3,44.3,190.6z"/><path d="M279.7,3.2c-5.3-0.6-10.6-1-15.9-1.2l-0.6,16.4c4.9,0.2,9.8,0.5,14.6,1.1L279.7,3.2z"/><path d="M310.9,9c-5.1-1.4-10.3-2.5-15.5-3.5l-3,16.1c4.8,0.9,9.6,2,14.3,3.2L310.9,9z"/><path d="M248.6,18.4L248,2c-5.3,0.2-10.6,0.6-15.8,1.2l1.8,16.3C238.8,18.9,243.7,18.6,248.6,18.4z"/><path d="M219.4,21.7l-3-16.1c-5.2,1-10.4,2.2-15.5,3.5l4.2,15.8C209.8,23.6,214.6,22.5,219.4,21.7z"/><path d="M369.1,34.3c-4.5-2.8-9.1-5.5-13.8-7.9l-7.6,14.5c4.3,2.3,8.6,4.7,12.7,7.3L369.1,34.3z"/><path d="M394.7,53.1c-4-3.4-8.2-6.8-12.4-9.9l-9.7,13.2c3.9,2.9,7.8,6,11.5,9.1L394.7,53.1z"/><path d="M417.2,75.6c-3.5-4-7.1-7.9-10.8-11.6l-11.6,11.6c3.4,3.4,6.8,7,10,10.7L417.2,75.6z"/><path d="M164.2,41l-7.7-14.5c-4.7,2.5-9.3,5.1-13.8,8l8.7,13.9C155.6,45.7,159.9,43.2,164.2,41z"/><path d="M341,19.5c-4.8-2.1-9.8-4.1-14.8-5.8l-5.4,15.5c4.6,1.6,9.2,3.4,13.7,5.4L341,19.5z"/><path d="M191.1,29.2l-5.4-15.5c-5,1.7-9.9,3.7-14.8,5.8l6.6,15C181.9,32.6,186.5,30.8,191.1,29.2z"/><path d="M60.8,129.3l15,6.6c2-4.5,4.1-8.9,6.4-13.2L67.8,115C65.3,119.6,63,124.5,60.8,129.3z"/><path d="M84.8,88.1c-3.1,4.2-6.2,8.7-9,13.1l13.9,8.8c2.6-4.1,5.4-8.2,8.3-12.1L84.8,88.1z"/><path d="M444.1,114.8l-14.5,7.7c2.3,4.3,4.4,8.7,6.4,13.2l15-6.6C449,124.2,446.6,119.4,444.1,114.8z"/><path d="M427.2,88L414,97.7c2.9,3.9,5.7,8,8.3,12.1l13.9-8.8C433.3,96.6,430.3,92.2,427.2,88z"/><path d="M139.4,56.6l-9.7-13.2c-4.3,3.1-8.5,6.5-12.4,9.9l10.7,12.4C131.6,62.5,135.4,59.5,139.4,56.6z"/><path d="M117.1,75.7l-11.6-11.6c-3.7,3.7-7.4,7.6-10.8,11.6l12.4,10.7C110.3,82.7,113.7,79.1,117.1,75.7z"/><path d="M457,143.9l-15.5,5.5c1.6,4.6,3.1,9.3,4.4,14l15.8-4.3C460.3,154,458.7,148.9,457,143.9z"/><path d="M465.3,174.5l-16.1,3.1c0.9,4.8,1.7,9.7,2.2,14.5l16.3-1.9C467.1,185,466.3,179.7,465.3,174.5z"/><path d="M365.3,92.8c-35.2-31.5-80.6-46-128-40.7C161.6,60.5,100.9,121.6,93,197.4c-5.1,48.6,11.4,96.4,45.1,131.3   c28,28.9,43.6,66.5,44,105.8c-4.9,4.5-8.1,10.9-8.1,18.1c0,11.3,7.7,20.8,18.2,23.6c-1.1,2.8-1.8,5.9-1.8,9.1   c0,13.6,11,24.6,24.6,24.6h82c13.6,0,24.6-11,24.6-24.6c0-3.2-0.7-6.3-1.8-9.1c10.4-2.8,18.2-12.3,18.2-23.6   c0-7.2-3.2-13.6-8.1-18.1c0.4-39.6,15.8-76.9,43.5-105.3c30-30.7,46.6-71.3,46.6-114.3C419.9,168.4,400,123.9,365.3,92.8z    M223.2,313.3h-12.3c-6.8,0-12.3-5.5-12.3-12.3c0-6.8,5.5-12.3,12.3-12.3c6.8,0,12.3,5.5,12.3,12.3V313.3z M239.6,329.7h32.8V428   h-32.8V329.7z M297,493.6h-82c-4.5,0-8.2-3.7-8.2-8.2s3.7-8.2,8.2-8.2h82c4.5,0,8.2,3.7,8.2,8.2S301.5,493.6,297,493.6z    M313.4,460.8H297h-82h-16.4c-4.5,0-8.2-3.7-8.2-8.2c0-4.5,3.7-8.2,8.2-8.2h114.7c4.5,0,8.2,3.7,8.2,8.2   C321.6,457.1,317.9,460.8,313.4,460.8z M361.7,317.8c-29.2,29.9-46.1,68.8-48.1,110.3h-0.2h-24.6v-98.3h12.3   c15.8,0,28.7-12.9,28.7-28.7c0-15.8-12.9-28.7-28.7-28.7c-15.8,0-28.7,12.9-28.7,28.7v12.3h-32.8V301c0-15.8-12.9-28.7-28.7-28.7   s-28.7,12.9-28.7,28.7c0,15.8,12.9,28.7,28.7,28.7h12.3V428h-24.6h-0.2c-2-41.3-19-80.3-48.5-110.7   c-30.4-31.4-45.2-74.5-40.6-118.2c7.1-68.2,61.7-123.2,129.8-130.7c42.6-4.7,83.6,8.3,115.3,36.6c31.2,28,49.2,68,49.2,109.9   C403.5,253.6,388.7,290.1,361.7,317.8z M288.8,313.3V301c0-6.8,5.5-12.3,12.3-12.3s12.3,5.5,12.3,12.3c0,6.8-5.5,12.3-12.3,12.3   H288.8z"/></g><text x="0" y="527" fill="#000000" font-size="5px" font-weight="bold" font-family="'Helvetica Neue', Helvetica, Arial-Unicode, Arial, Sans-serif">Created by Icon Fair</text><text x="0" y="532" fill="#000000" font-size="5px" font-weight="bold" font-family="'Helvetica Neue', Helvetica, Arial-Unicode, Arial, Sans-serif">from the Noun Project</text></svg>