<svg xmlns="http://www.w3.org/2000/svg" xmlns:xlink="http://www.w3.org/1999/xlink" version="1.1" x="0px" y="0px" viewBox="0 0 512 640" enable-background="new 0 0 512 512" xml:space="preserve"><g><path d="M493.6,314.9V49.7c9.5-3.4,16.4-12.4,16.4-23.1C510,13,499,2,485.4,2H26.6C13,2,2,13,2,26.6c0,10.7,6.9,19.7,16.4,23.1   v265.2C8.9,318.3,2,327.3,2,337.9c0,13.6,11,24.6,24.6,24.6h204.8v81.9h-98.3V510h49.2v-16.4h49.2V510h49.2v-16.4h49.2V510h49.2   v-65.5h-98.3v-81.9h204.8c13.6,0,24.6-11,24.6-24.6C510,327.3,503.1,318.3,493.6,314.9z M34.8,51.2h442.5v262.2H34.8V51.2z    M26.6,18.4h458.8c4.5,0,8.2,3.7,8.2,8.2s-3.7,8.2-8.2,8.2H26.6c-4.5,0-8.2-3.7-8.2-8.2S22.1,18.4,26.6,18.4z M362.5,460.8v32.8   h-16.4v-16.4h-81.9v16.4h-16.4v-16.4h-81.9v16.4h-16.4v-32.8h98.3v-98.3h16.4v98.3H362.5z M485.4,346.1H280.6h-49.2H26.6   c-4.5,0-8.2-3.7-8.2-8.2s3.7-8.2,8.2-8.2h458.8c4.5,0,8.2,3.7,8.2,8.2S489.9,346.1,485.4,346.1z"/><path d="M436.3,83.9c-13.6,0-24.6,11-24.6,24.6c0,3.8,0.9,7.3,2.5,10.5l-68,68L297,137.9l-98.3,98.3l-65.5-65.5l-46.8,46.8   c-3.2-1.5-6.7-2.5-10.5-2.5c-13.6,0-24.6,11-24.6,24.6s11,24.6,24.6,24.6s24.6-11,24.6-24.6c0-3.8-0.9-7.3-2.5-10.5l35.2-35.2   l65.5,65.5l98.3-98.3l49.2,49.2l79.6-79.6c3.2,1.5,6.7,2.5,10.5,2.5c13.6,0,24.6-11,24.6-24.6S449.8,83.9,436.3,83.9z M75.7,247.8   c-4.5,0-8.2-3.7-8.2-8.2c0-4.5,3.7-8.2,8.2-8.2s8.2,3.7,8.2,8.2C83.9,244.1,80.3,247.8,75.7,247.8z M436.3,116.7   c-4.5,0-8.2-3.7-8.2-8.2s3.7-8.2,8.2-8.2c4.5,0,8.2,3.7,8.2,8.2S440.8,116.7,436.3,116.7z"/></g><text x="0" y="527" fill="#000000" font-size="5px" font-weight="bold" font-family="'Helvetica Neue', Helvetica, Arial-Unicode, Arial, Sans-serif">Created by Icon Fair</text><text x="0" y="532" fill="#000000" font-size="5px" font-weight="bold" font-family="'Helvetica Neue', Helvetica, Arial-Unicode, Arial, Sans-serif">from the Noun Project</text></svg>